<?xml version="1.0" encoding="utf-8"?>
<!-- Generator: Adobe Illustrator 23.1.1, SVG Export Plug-In . SVG Version: 6.00 Build 0)  -->
<svg version="1.1" id="Layer_1" xmlns="http://www.w3.org/2000/svg" xmlns:xlink="http://www.w3.org/1999/xlink" x="0px" y="0px"
	 viewBox="0 0 40 40" style="enable-background:new 0 0 40 40;" xml:space="preserve">
<style type="text/css">
	.st0{fill:#0070C9;}
</style>
<g id="Ultralight-S" transform="matrix(1 0 0 1 515.644 696)">
	<path class="st0" d="M-495.7-656.3c10.8,0,19.7-8.9,19.7-19.7s-8.9-19.7-19.7-19.7c-10.8,0-19.7,8.9-19.7,19.7
		S-506.5-656.3-495.7-656.3z M-501-668.3c-2.7,0-4.7,1.2-4.9,1.8c-0.1,0.1-0.2,0.2-0.4,0.2c-0.2,0-0.4-0.2-0.4-0.4v-16.7
		c0.1-0.9,2.8-2.4,5.7-2.4c2.4,0,4.2,0.9,4.9,1.6v17.7c-0.1,0-0.1-0.1-0.2-0.1C-496.8-667-498.3-668.3-501-668.3z M-490.3-668.3
		c-2.8,0-4.2,1.4-4.7,1.8c-0.1,0-0.1,0.1-0.2,0.1v-17.8c0.7-0.7,2.5-1.6,4.9-1.6c2.9,0,5.6,1.5,5.7,2.4v16.7c0,0.2-0.2,0.4-0.4,0.4
		c-0.2,0-0.3-0.1-0.4-0.2C-485.6-667.1-487.5-668.3-490.3-668.3z"/>
</g>
</svg>
