<?xml version="1.0" encoding="UTF-8" standalone="no"?>
<svg xmlns="http://www.w3.org/2000/svg" xmlns:xlink="http://www.w3.org/1999/xlink" clip-rule="evenodd" stroke-miterlimit="10" viewBox="0 0 1200.00 802.67">
    <desc>SVG generated by Lineform</desc>
    <defs/>
    <g>
        <path d="M 949.43 410.76 C 949.88 410.94 949.82 409.27 950.27 409.45 C 950.57 409.74 950.62 410.25 950.43 411.03 C 951.98 408.97 951.63 405.96 953.27 407.11 C 954.06 407.63 954.98 405.52 956.67 403.62 C 958.38 401.73 960.64 399.98 961.97 399.62 C 965.99 397.81 971.19 398.43 974.79 401.31 C 978.42 404.25 979.98 409.20 978.69 413.52 C 978.61 413.49 978.65 412.99 978.26 414.18 C 978.55 413.83 976.18 421.67 968.29 422.23 C 960.37 422.89 955.95 414.33 956.46 414.41 C 956.37 414.51 956.37 414.67 956.48 414.96 C 955.07 412.42 955.41 412.26 954.29 411.03 C 954.63 411.47 953.95 412.75 953.96 412.71 C 950.95 408.88 954.06 413.96 952.08 412.33 C 951.98 413.04 951.92 414.00 951.49 412.93 C 950.91 411.34 949.70 415.29 950.45 416.91 C 950.54 417.81 952.54 422.12 955.86 424.95 C 959.10 427.95 963.27 428.83 963.25 428.77 C 963.28 428.72 963.62 429.18 963.38 429.30 C 965.21 430.07 971.63 431.45 974.39 429.78 C 974.01 429.82 973.71 429.81 973.49 429.74 C 974.04 429.61 974.58 429.44 975.10 429.24 C 975.07 429.08 974.17 428.75 974.44 428.59 C 974.61 428.56 977.51 427.66 979.97 425.85 C 982.55 424.18 984.36 421.54 984.52 421.35 C 984.46 421.01 986.18 418.84 987.01 415.90 C 987.97 413.03 987.99 409.65 987.69 408.37 C 987.02 404.47 985.01 399.76 981.37 396.34 C 977.81 392.86 972.85 390.92 968.78 390.64 C 964.43 390.29 959.28 391.17 955.54 393.93 C 954.26 394.58 950.22 399.62 949.62 400.96 C 949.95 400.78 950.26 400.38 950.58 399.74 C 950.54 400.28 947.33 405.17 948.41 405.41 C 948.87 405.46 949.07 403.73 949.06 403.71 L 949.09 403.75 C 949.17 403.85 949.29 403.77 949.44 403.53 C 949.35 405.26 950.10 403.86 950.09 403.88 C 950.27 403.50 950.94 402.94 951.44 402.09 C 951.24 402.48 950.40 403.77 950.09 404.21 C 949.73 404.29 948.84 410.49 949.43 410.76 Z M 949.43 410.76 " fill="#000000" id="open_circle_end"/>
        <path d="M 981.59 323.34 C 981.94 323.41 982.22 323.51 982.41 323.62 C 981.87 323.60 981.32 323.60 980.78 323.62 C 980.75 323.78 981.48 324.32 981.19 324.38 C 980.80 324.46 969.21 323.89 968.66 323.88 C 968.41 324.01 965.73 323.91 962.81 323.78 C 961.35 323.72 959.85 323.68 958.53 323.62 C 958.22 323.62 958.51 323.60 957.72 323.62 C 956.49 323.41 954.48 325.63 954.78 326.69 C 954.76 327.04 954.75 326.78 954.75 326.88 L 954.75 326.91 L 954.75 326.97 L 954.75 327.09 L 954.75 327.31 L 954.72 328.16 C 954.72 328.68 954.71 329.10 954.72 329.41 C 955.05 337.48 954.46 346.76 953.88 355.84 L 953.88 356.03 L 953.88 356.12 C 953.95 356.17 953.66 355.68 954.12 357.59 C 954.59 359.30 956.95 360.47 957.88 360.31 C 958.22 360.32 957.98 360.31 958.06 360.31 L 958.09 360.31 L 958.47 360.34 L 959.25 360.41 L 960.78 360.53 L 963.91 360.84 C 966.00 361.05 968.10 361.24 970.09 361.28 C 971.26 361.30 976.91 360.92 978.16 361.22 C 977.89 361.03 977.44 360.96 976.81 361.00 C 977.26 360.55 982.34 361.49 982.22 360.72 C 982.15 360.29 980.60 360.62 980.59 360.62 L 980.59 360.56 C 980.65 360.47 980.56 360.40 980.31 360.34 C 981.83 359.93 980.36 359.65 980.38 359.66 C 979.99 359.56 979.24 359.28 978.28 359.25 C 978.70 359.23 980.20 359.33 980.69 359.56 C 980.82 359.57 986.78 359.36 987.03 359.03 C 987.21 358.61 985.54 358.81 985.69 358.38 C 985.95 358.09 986.49 357.99 987.31 358.09 C 985.11 356.72 981.75 357.61 982.59 355.97 C 983.38 354.42 971.43 353.92 967.66 353.62 C 966.12 353.49 964.54 353.37 962.91 353.25 L 961.47 353.16 C 961.64 350.59 961.81 348.03 961.97 345.34 C 962.18 341.67 962.36 337.90 962.53 334.06 L 962.62 331.78 C 962.48 331.85 961.81 331.94 963.81 331.94 C 963.81 332.02 966.77 331.96 971.22 331.81 C 973.45 331.74 976.05 331.64 978.84 331.53 C 980.23 331.47 981.66 331.43 983.12 331.38 L 983.19 331.38 L 984.19 351.03 C 984.29 350.91 984.35 350.68 984.34 350.22 C 984.84 354.34 984.92 354.38 985.69 356.12 C 985.43 355.52 986.17 353.93 986.16 354.00 C 988.56 358.89 986.18 352.52 987.84 354.66 C 987.99 353.86 988.15 352.83 988.44 354.06 C 988.85 355.75 990.17 351.84 990.16 350.25 C 990.15 348.48 989.85 332.20 989.75 332.16 C 989.70 332.14 990.01 331.71 990.19 331.91 C 990.16 331.40 990.22 330.64 990.31 329.75 L 990.44 328.34 L 990.53 327.59 L 990.56 327.19 L 990.59 327.00 L 990.59 326.88 C 990.75 326.52 990.11 324.33 988.59 323.84 C 986.94 323.37 987.30 323.64 987.28 323.56 L 987.25 323.56 C 985.15 323.34 982.97 323.17 981.59 323.34 Z M 981.59 323.34 " fill="#000000" id="open_square_end"/>
        <path d="M 985.16 283.53 L 984.89 283.52 L 984.41 283.55 C 984.12 283.59 983.92 283.67 983.78 283.79 C 983.63 284.15 985.38 283.99 985.19 284.34 C 984.93 284.62 978.66 284.81 978.52 284.80 C 978.00 284.61 976.45 284.52 976.01 284.54 C 977.02 284.56 977.80 284.80 978.22 284.88 C 978.21 284.88 979.73 285.09 978.13 285.44 C 978.40 285.50 978.50 285.57 978.44 285.65 L 978.41 285.68 C 978.43 285.67 980.05 285.41 980.12 285.77 C 980.25 286.42 974.93 285.62 974.46 285.99 C 975.12 285.96 975.59 286.03 975.87 286.19 C 974.56 285.94 968.63 286.25 967.41 286.23 C 965.32 286.20 963.14 286.05 960.95 285.88 L 957.67 285.62 L 956.05 285.51 L 955.25 285.46 L 954.85 285.43 L 954.80 285.43 L 954.79 285.43 C 954.49 285.35 955.57 285.62 953.61 285.23 C 951.66 284.85 951.03 281.67 951.28 281.93 L 951.28 281.91 L 951.28 281.81 L 951.29 281.62 C 951.69 273.81 952.27 261.93 952.01 253.94 C 952.00 253.61 952.00 253.15 952.00 252.61 L 952.02 251.73 L 952.03 251.49 L 952.03 251.37 L 952.03 251.31 L 952.03 251.28 L 952.03 251.26 L 952.03 251.25 C 952.01 250.93 952.15 249.93 952.91 249.24 C 955.06 247.99 954.91 248.71 954.79 248.51 L 954.81 248.51 L 954.84 248.51 L 954.90 248.51 L 955.02 248.51 L 955.28 248.52 C 956.66 248.56 958.26 248.62 959.79 248.67 C 962.85 248.78 965.65 248.87 965.92 248.76 C 966.49 248.77 978.63 249.21 979.04 249.15 C 979.35 249.09 978.58 248.65 978.61 248.52 L 980.30 248.52 C 980.11 248.42 979.82 248.34 979.46 248.28 C 980.91 248.14 983.19 248.30 985.38 248.48 L 985.43 248.49 L 985.45 248.49 C 985.38 248.61 985.19 248.17 986.95 248.93 C 989.37 252.40 987.72 250.93 988.22 251.27 L 988.21 251.37 L 988.19 251.58 L 988.16 251.98 L 988.09 252.78 L 987.97 254.27 C 987.90 255.20 987.86 255.99 987.88 256.53 C 987.73 256.31 987.47 256.78 987.51 256.80 C 987.60 256.84 987.84 273.90 987.86 275.75 C 987.86 277.42 986.75 281.52 986.42 279.75 C 986.17 278.46 986.05 279.54 985.92 280.37 C 984.52 278.14 986.52 284.80 984.50 279.67 C 984.52 279.59 982.88 281.18 983.80 282.26 C 984.52 279.59 982.88 281.18 983.80 282.26 C 984.52 279.59 982.88 281.18 983.80 282.26 " fill="#000000" id="filled_square_end"/>
        <path d="M 815.90 564.48 C 816.25 564.66 817.92 570.69 817.94 570.83 C 817.86 571.37 818.13 572.90 818.25 573.32 C 818.04 572.34 818.11 571.52 818.10 571.10 C 818.10 571.11 817.97 569.58 818.70 571.04 C 818.70 570.77 818.75 570.65 818.85 570.69 L 818.89 570.71 C 818.87 570.69 818.22 569.19 818.58 569.03 C 819.23 568.74 819.64 574.09 820.14 574.45 C 819.96 573.83 819.92 573.35 820.02 573.04 C 820.06 574.37 821.77 580.04 822.04 581.23 L 822.36 582.78 L 822.51 583.56 L 822.58 583.95 L 822.62 584.15 L 822.64 584.25 L 822.64 584.28 L 822.64 584.29 C 822.61 584.18 822.72 584.56 822.57 584.03 C 822.58 584.48 823.23 585.18 822.22 587.52 C 817.51 592.49 815.19 588.05 815.93 589.24 L 815.89 589.21 L 813.22 587.33 C 811.44 586.05 809.67 584.75 807.92 583.58 C 801.46 579.22 791.61 572.61 784.62 568.77 C 784.33 568.62 783.95 568.38 783.48 568.10 L 782.74 567.64 L 782.33 567.38 C 782.51 567.46 781.83 567.17 781.37 566.45 C 780.70 565.71 780.79 563.73 781.44 563.10 C 782.77 561.75 782.21 562.46 782.34 562.27 L 782.35 562.27 L 782.38 562.25 L 782.43 562.22 L 782.54 562.16 L 782.76 562.04 C 783.96 561.37 785.36 560.61 786.70 559.88 C 789.39 558.41 791.83 557.07 792.00 556.82 C 792.50 556.55 803.14 550.76 803.45 550.49 C 803.68 550.28 802.78 550.25 802.73 550.12 L 804.18 549.26 C 803.96 549.26 803.67 549.33 803.33 549.47 C 805.65 547.73 811.51 545.39 813.30 544.22 C 813.19 544.47 813.74 544.47 813.73 544.42 C 813.73 544.40 814.63 543.82 816.01 542.95 L 816.55 542.61 L 816.83 542.43 L 816.98 542.34 C 817.42 542.19 816.10 542.62 817.98 541.98 C 820.11 541.45 821.17 545.29 820.49 544.96 C 820.55 544.75 820.51 544.90 820.52 544.86 L 820.51 544.87 L 820.51 544.89 L 820.50 544.93 L 820.18 546.38 C 819.96 547.38 819.72 548.47 819.48 549.56 C 818.50 553.94 817.46 558.54 817.25 559.44 C 816.87 561.06 814.75 564.75 814.81 562.95 " fill="#000000" id="filled_arrow_end"/>
        <path d="M 805.13 428.85 C 805.37 428.27 806.94 427.69 806.88 427.73 C 805.21 432.60 807.87 426.77 807.55 429.30 C 808.19 428.87 808.97 428.29 808.35 429.30 C 807.49 430.70 810.98 428.97 812.04 427.90 C 813.21 426.71 823.90 415.64 823.85 415.54 C 823.83 415.50 824.34 415.40 824.32 415.66 C 824.64 415.31 825.18 414.83 825.83 414.29 L 826.88 413.44 L 827.44 412.99 L 827.72 412.76 L 827.87 412.64 L 827.94 412.58 L 827.95 412.58 C 828.41 412.30 829.25 410.60 828.66 409.29 C 827.95 407.91 827.84 408.17 827.95 408.18 L 827.94 408.17 L 827.91 408.13 C 826.66 406.59 825.33 405.01 824.29 404.19 C 824.48 404.47 824.60 404.72 824.65 404.92 L 823.57 403.84 C 823.45 403.93 823.58 404.77 823.34 404.61 C 823.03 404.41 815.64 396.32 815.29 395.94 C 815.03 395.86 813.31 394.00 811.45 391.96 C 810.51 390.94 809.55 389.88 808.70 388.97 L 808.54 388.80 L 808.46 388.72 L 808.42 388.68 L 808.40 388.66 C 807.93 388.78 809.80 388.66 805.90 387.76 C 802.53 389.17 804.61 388.47 804.00 388.66 L 803.98 388.68 L 803.94 388.72 L 803.86 388.79 L 803.71 388.94 L 803.14 389.49 C 802.78 389.83 802.49 390.12 802.29 390.33 C 797.41 395.64 789.38 402.75 784.08 407.41 L 783.95 407.53 L 783.88 407.59 L 783.87 407.60 C 783.56 407.75 782.27 409.65 782.85 411.39 C 783.54 413.22 784.14 413.32 783.87 413.17 L 783.88 413.18 L 783.91 413.21 L 784.14 413.48 L 784.62 414.04 L 785.56 415.16 L 787.44 417.46 C 788.70 418.99 789.97 420.50 791.28 421.85 C 792.05 422.65 796.07 426.18 796.71 427.22 C 796.65 426.91 796.40 426.56 795.97 426.16 C 796.56 426.16 799.32 430.19 799.75 429.59 C 799.99 429.26 798.75 428.43 798.73 428.43 L 798.77 428.42 C 798.88 428.40 798.87 428.27 798.74 428.06 C 800.03 428.80 799.23 427.67 799.24 427.68 C 799.04 427.35 798.73 426.65 798.11 425.99 C 798.40 426.26 799.32 427.32 799.50 427.80 C 799.58 427.90 803.72 431.74 804.11 431.69 C 804.52 431.53 803.27 430.54 803.65 430.35 C 803.84 430.34 804.04 430.41 804.25 430.56 L 804.57 430.84 L 804.74 431.03 L 804.83 431.13 L 804.87 431.18 L 804.90 431.21 L 804.91 431.23 C 804.80 431.66 807.22 432.06 807.51 431.23 C 807.30 431.57 806.15 432.01 805.43 431.58 C 804.66 431.10 804.99 431.24 804.91 431.21 L 804.91 431.19 L 804.89 431.13 L 804.86 431.02 L 804.79 430.80 L 804.62 430.39 L 804.18 429.60 C 803.86 429.11 803.51 428.66 803.22 428.28 C 803.86 429.11 803.51 428.66 803.22 428.28 C 803.86 429.11 803.51 428.66 803.22 428.28 " fill="#000000" id="filled_diamond_end"/>
        <path d="M 786.80 336.57 C 785.44 335.45 785.62 338.56 784.31 340.66 C 784.48 339.87 784.45 339.35 784.21 339.06 C 783.83 338.89 783.85 340.58 783.48 340.39 C 782.95 340.12 783.88 333.90 784.25 333.82 C 784.52 333.36 785.35 332.05 785.54 331.66 C 785.05 332.52 784.42 333.10 784.25 333.50 C 784.27 333.47 783.57 334.89 783.72 333.19 C 783.58 333.43 783.48 333.51 783.42 333.42 L 783.39 333.38 C 783.39 333.40 783.15 335.11 782.76 335.07 C 781.82 334.89 784.85 329.97 784.95 329.47 C 784.64 330.10 784.34 330.50 784.04 330.69 C 784.59 329.34 788.64 324.38 789.91 323.75 C 793.59 321.01 798.66 320.03 803.01 320.33 C 811.69 320.16 821.49 329.69 822.01 337.99 C 823.52 340.84 819.57 350.87 818.88 351.07 C 818.71 351.27 816.92 353.95 814.32 355.65 C 811.85 357.50 808.92 358.43 808.74 358.46 C 808.47 358.60 809.34 358.84 809.36 358.97 L 807.74 359.48 C 807.96 359.53 808.26 359.52 808.63 359.47 C 805.86 361.09 799.42 359.90 797.55 359.11 C 797.80 359.02 797.44 358.61 797.41 358.65 C 797.42 358.70 793.20 357.79 789.95 354.74 C 786.60 351.86 784.59 347.51 784.51 346.60 C 783.75 344.99 784.72 340.99 785.23 342.61 C 785.62 343.73 785.65 342.74 785.72 342.01 C 787.40 343.75 784.69 338.38 787.30 342.45 C 787.29 342.49 787.82 341.14 787.53 340.66 C 787.29 342.49 787.82 341.14 787.53 340.66 C 787.29 342.49 787.82 341.14 787.53 340.66 " fill="#000000" id="filled_circle_end"/>
        <path d="M 822.46 286.40 C 821.62 286.94 820.96 286.60 820.80 286.52 C 820.75 286.49 820.78 286.51 820.77 286.50 L 820.76 286.49 L 820.72 286.47 L 820.67 286.43 L 820.55 286.35 L 820.33 286.22 L 819.92 286.03 C 819.68 285.94 819.47 285.92 819.30 285.96 C 819.01 286.20 820.51 286.84 820.19 287.06 C 819.85 287.18 814.65 284.55 814.54 284.48 C 814.21 284.09 812.99 283.33 812.62 283.14 C 813.43 283.61 813.96 284.17 814.26 284.42 C 814.25 284.41 815.39 285.27 813.93 284.86 C 814.12 285.02 814.17 285.13 814.08 285.17 L 814.04 285.19 C 814.06 285.18 815.50 285.68 815.40 286.02 C 815.20 286.64 811.24 283.59 810.68 283.70 C 811.23 283.97 811.58 284.23 811.74 284.49 C 810.79 283.69 805.81 281.32 804.82 280.76 C 801.43 278.85 797.98 276.36 794.63 274.30 C 793.08 273.34 791.34 272.27 789.48 271.14 L 786.63 269.41 L 786.45 269.30 L 786.35 269.24 L 786.31 269.22 C 786.08 269.06 786.82 269.57 785.79 268.85 C 784.47 268.60 784.68 264.46 785.86 264.39 C 786.74 263.80 786.11 264.23 786.31 264.09 L 786.34 264.08 L 786.72 263.89 L 787.49 263.51 L 789.03 262.74 C 793.13 260.68 797.22 258.54 800.42 256.65 C 802.53 255.40 811.50 251.16 811.83 250.73 C 812.07 250.61 814.72 249.29 817.34 247.98 L 819.27 247.01 L 820.16 246.56 L 820.37 246.45 L 820.47 246.40 L 820.52 246.38 L 820.54 246.37 L 820.54 246.37 C 820.34 246.66 820.78 245.64 822.68 246.45 C 824.54 249.33 823.23 247.79 823.63 248.21 L 823.63 248.22 L 823.62 248.66 C 823.59 249.78 823.57 250.55 823.59 250.64 C 823.64 250.93 824.08 250.22 824.20 250.25 L 824.20 251.82 C 824.30 251.64 824.38 251.38 824.43 251.03 C 824.70 253.73 823.82 259.53 823.90 261.52 C 823.75 261.32 823.50 261.76 823.54 261.77 C 823.62 261.81 823.86 277.66 823.87 279.38 C 823.88 280.93 822.80 284.74 822.48 283.09 C 822.24 281.90 822.12 282.90 821.99 283.68 C 820.63 281.60 822.58 287.79 820.61 283.02 C 820.62 282.95 820.02 284.52 820.23 285.12 C 820.62 282.95 820.02 284.52 820.23 285.12 C 820.62 282.95 820.02 284.52 820.23 285.12 " fill="#000000" id="simple_arrow_end"/>
        <path d="M 980.31 467.48 C 980.65 468.00 980.98 468.25 981.30 468.24 C 981.64 468.08 980.68 467.24 981.05 467.10 C 981.39 467.05 984.53 470.32 984.58 470.40 C 984.68 470.81 985.35 471.71 985.57 471.94 C 985.11 471.38 984.93 470.79 984.79 470.51 C 984.79 470.52 984.23 469.55 985.26 470.18 C 985.18 470.00 985.18 469.90 985.27 469.87 L 985.31 469.87 C 985.29 469.86 984.33 469.16 984.57 468.88 C 985.00 468.37 986.92 471.79 987.44 471.79 C 987.10 471.46 986.93 471.16 986.91 470.89 C 987.35 471.78 990.41 474.78 990.98 475.46 C 992.93 477.76 994.68 480.60 996.53 483.03 L 997.88 484.82 L 998.25 485.29 L 998.29 485.35 C 998.27 485.33 998.34 485.40 998.25 485.31 C 998.49 485.57 998.77 485.96 998.96 486.54 C 999.43 487.74 998.85 489.28 998.33 489.76 C 998.25 489.86 998.30 489.80 998.28 489.82 L 998.25 489.85 L 998.15 489.95 L 997.93 490.17 L 997.04 491.05 C 995.85 492.24 994.59 493.51 993.35 494.80 C 990.87 497.37 988.44 500.01 986.64 502.26 C 986.04 503.00 984.36 504.72 982.82 506.31 L 981.71 507.45 L 981.21 507.98 L 980.98 508.22 L 980.96 508.24 C 980.99 508.10 981.17 508.28 979.97 508.92 C 979.45 509.35 977.43 508.98 976.99 507.99 C 976.50 507.19 976.58 506.86 976.54 506.63 C 976.54 506.50 976.54 506.59 976.54 506.56 L 976.55 506.52 L 976.55 506.44 L 976.55 506.29 C 976.57 505.48 976.57 504.93 976.51 504.83 C 976.53 504.42 976.99 495.65 976.91 495.36 C 976.86 495.14 976.40 495.69 976.27 495.67 L 976.27 494.45 C 976.16 494.59 976.08 494.79 976.03 495.06 C 975.74 492.96 976.67 488.46 976.59 486.91 C 976.74 487.07 977.01 486.73 976.97 486.71 C 976.88 486.69 976.62 474.37 976.62 473.04 C 976.61 471.83 977.74 468.87 978.09 470.15 C 978.34 471.08 978.47 470.30 978.61 469.70 C 980.04 471.31 977.99 466.51 980.06 470.21 C 980.04 470.26 980.68 469.04 980.46 468.58 C 981.12 469.90 981.20 469.93 981.63 473.06 C 981.62 472.71 981.66 472.54 981.75 472.45 C 981.62 472.71 981.66 472.54 981.75 472.45 C 981.62 472.71 981.66 472.54 981.75 472.45 " fill="#000000" id="inverted_arrow_end"/>
        <path d="M 977.40 587.06 C 977.40 586.95 977.40 587.02 977.40 586.99 L 977.40 586.97 L 977.41 586.92 L 977.42 586.82 L 977.44 586.63 L 977.41 586.31 C 977.37 586.12 977.28 585.98 977.15 585.89 C 976.77 585.79 976.94 586.96 976.57 586.83 C 976.27 586.66 976.07 582.45 976.08 582.36 C 976.28 582.01 976.38 580.97 976.36 580.67 C 976.34 581.35 976.08 581.87 975.99 582.15 C 976.00 582.14 975.77 583.16 975.40 582.09 C 975.35 582.27 975.27 582.34 975.19 582.30 L 975.16 582.28 C 975.17 582.29 975.44 583.38 975.06 583.43 C 974.37 583.51 975.22 579.95 974.82 579.63 C 974.85 580.07 974.78 580.38 974.61 580.58 C 974.88 579.69 974.55 575.71 974.57 574.89 C 974.63 572.09 975.21 569.03 975.44 566.19 C 975.65 563.57 975.91 560.27 976.08 556.95 C 976.16 555.29 976.23 553.63 976.25 552.04 L 976.25 551.90 C 976.31 552.13 976.06 551.56 976.73 550.49 C 977.40 549.46 979.03 549.28 979.13 549.34 L 979.15 549.34 L 979.19 549.34 L 979.28 549.34 L 979.61 549.35 L 980.26 549.35 L 981.54 549.35 C 982.38 549.34 983.18 549.32 983.93 549.29 C 984.18 549.28 984.53 549.28 984.94 549.28 L 985.60 549.30 L 985.79 549.31 L 985.88 549.31 L 985.92 549.31 L 985.95 549.31 L 985.96 549.31 C 985.80 549.38 985.86 549.10 987.40 549.65 C 988.78 550.20 988.96 552.03 988.87 551.89 L 988.87 551.91 L 988.87 551.93 L 988.87 551.97 L 988.87 552.05 L 988.86 552.23 C 988.82 553.15 988.75 554.22 988.70 555.25 C 988.58 557.31 988.49 559.19 988.61 559.36 C 988.59 559.75 988.12 567.90 988.19 568.17 C 988.25 568.38 988.72 567.87 988.86 567.89 L 988.86 569.03 C 988.96 568.90 989.05 568.71 989.11 568.46 C 989.41 570.40 988.44 574.60 988.53 576.04 C 988.37 575.89 988.09 576.21 988.13 576.22 C 988.18 576.23 988.27 579.10 988.35 582.12 C 988.39 583.63 988.42 585.19 988.45 586.43 L 988.46 586.89 L 988.46 587.00 C 988.45 587.14 988.49 586.70 988.44 587.32 C 988.62 588.48 986.05 589.54 985.96 589.23 L 985.93 589.23 L 985.87 589.23 L 985.64 589.23 L 984.82 589.24 C 984.33 589.25 983.97 589.26 983.80 589.26 C 982.54 589.27 979.44 588.23 980.78 587.91 C 981.75 587.68 980.93 587.56 980.30 587.44 C 981.99 586.13 976.96 588.00 980.84 586.11 C 980.89 586.12 979.34 584.39 978.85 584.59 C 980.89 586.12 979.34 584.39 978.85 584.59 C 980.89 586.12 979.34 584.39 978.85 584.59 " fill="#000000" id="line_end"/>
        <path d="M 832.72 464.12 C 831.89 464.08 830.85 464.26 830.38 464.56 C 829.33 465.23 819.79 471.63 819.84 471.75 C 819.86 471.81 819.37 471.64 819.38 471.38 C 818.21 472.23 813.94 473.30 812.50 474.69 C 812.76 474.63 813.00 474.64 813.19 474.69 C 812.85 474.86 812.53 475.07 812.22 475.31 C 812.30 475.48 813.07 475.76 812.94 475.94 C 812.76 476.17 805.48 479.94 805.12 480.12 C 805.07 480.36 803.42 481.23 801.59 482.19 C 800.67 482.67 799.69 483.15 798.88 483.59 L 798.59 483.75 C 799.43 483.46 797.58 483.75 796.81 486.12 C 796.17 489.34 798.45 490.63 798.72 490.75 C 798.75 490.77 798.70 490.72 798.75 490.75 L 798.84 490.84 L 799.34 491.16 C 799.64 491.37 799.89 491.52 800.09 491.62 C 804.86 494.14 811.19 499.10 815.34 502.38 C 817.58 504.14 819.79 506.47 822.12 508.03 C 822.82 508.48 826.41 510.22 826.97 511.00 C 826.93 510.70 826.73 510.45 826.34 510.25 C 826.90 509.95 829.29 512.84 829.72 511.97 C 829.96 511.49 828.85 511.24 828.84 511.25 L 828.88 511.22 C 828.97 511.14 828.95 511.04 828.84 510.88 C 830.02 511.01 829.33 510.18 829.34 510.19 C 829.16 509.94 828.89 509.35 828.34 508.97 C 828.60 509.10 829.44 509.77 829.59 510.19 C 829.66 510.25 833.39 512.26 833.75 512.00 C 834.14 511.62 833.02 511.18 833.38 510.78 C 833.72 510.57 834.11 510.67 834.53 511.09 C 834.12 508.82 831.51 508.55 833.09 507.12 C 834.58 505.80 827.72 500.82 825.66 499.09 C 822.30 496.26 818.49 493.13 814.38 489.94 C 813.41 489.19 812.38 488.44 811.38 487.69 C 817.12 483.78 834.81 470.86 834.78 470.56 C 834.65 470.50 834.48 470.54 834.22 470.72 C 836.35 468.65 836.30 468.53 836.84 467.06 C 836.65 467.56 835.19 467.39 835.25 467.38 C 836.60 463.02 834.37 467.91 834.56 465.38 C 833.98 465.51 833.27 465.71 833.81 464.94 C 834.19 464.41 833.55 464.17 832.72 464.12 Z M 832.72 464.12 " fill="#000000" id="open_arrow_end"/>
        <path d="M 639.43 350.91 C 639.66 350.81 640.65 350.77 640.66 350.98 C 640.29 350.94 639.50 351.08 639.43 350.91 Z M 637.44 350.81 C 637.80 350.67 638.59 350.76 638.84 350.89 C 638.42 350.84 637.57 350.98 637.44 350.81 Z M 640.49 351.41 C 641.02 351.46 642.00 351.32 642.24 351.49 C 641.71 351.44 640.73 351.58 640.49 351.41 Z M 612.51 347.90 C 612.74 347.80 613.73 347.76 613.73 347.97 C 613.37 347.93 612.58 348.07 612.51 347.90 Z M 618.04 348.39 C 618.40 348.24 619.19 348.34 619.44 348.46 C 619.02 348.42 618.17 348.56 618.04 348.39 Z M 621.25 348.30 C 622.00 348.32 622.80 348.32 622.65 348.52 C 622.41 348.35 621.33 348.54 621.25 348.30 Z M 639.85 359.80 C 639.05 359.72 638.47 359.88 637.93 359.87 C 635.22 359.83 639.32 359.45 639.85 359.80 Z M 626.91 348.96 C 626.37 348.96 625.94 348.92 625.68 348.81 C 626.18 348.82 626.88 348.74 626.91 348.96 Z M 631.56 349.17 C 631.68 349.05 634.44 349.11 635.97 349.27 C 634.67 349.30 631.44 349.29 631.56 349.17 Z M 633.38 359.88 C 631.59 359.72 628.73 359.74 627.43 359.65 C 626.14 359.56 629.73 359.46 633.03 359.50 C 636.34 359.55 633.61 359.94 634.96 360.02 C 636.30 360.11 633.67 360.21 632.33 360.10 C 631.00 359.99 633.22 360.03 633.38 359.88 Z M 633.46 360.62 C 634.11 360.61 634.67 360.65 635.04 360.76 C 634.37 360.83 633.73 360.89 633.46 360.62 Z M 537.56 355.34 C 537.78 353.26 539.34 351.56 541.05 350.34 L 542.34 349.51 C 545.47 348.60 548.62 348.13 551.77 347.90 L 553.66 347.79 C 555.59 347.64 557.53 347.58 559.48 347.54 L 561.44 347.51 C 563.78 347.24 566.02 347.52 568.32 347.49 C 569.47 347.48 570.64 347.39 571.84 347.11 C 572.44 346.96 575.01 347.01 575.92 347.19 C 575.04 346.75 579.26 346.93 579.07 346.94 C 579.54 347.10 580.03 347.20 580.52 347.24 C 581.01 347.29 580.39 347.36 579.77 347.41 C 580.32 347.50 580.87 347.54 581.43 347.55 L 583.21 347.51 C 585.18 347.33 587.30 347.47 589.13 347.68 C 594.13 347.64 607.85 347.83 605.37 347.92 C 602.57 348.04 604.01 348.21 604.76 348.24 C 605.20 348.25 605.79 348.27 606.45 348.29 C 606.43 348.21 606.38 348.14 606.28 348.10 C 607.53 348.04 609.29 347.79 611.01 348.02 C 610.69 348.06 610.28 348.06 610.13 348.17 C 611.00 348.16 610.31 348.39 610.88 348.46 C 612.47 348.52 613.23 348.58 611.39 348.56 C 613.10 348.76 614.19 349.09 615.88 349.38 C 616.52 349.34 616.17 349.36 615.98 349.25 C 617.10 349.13 619.67 349.18 619.91 349.07 C 620.15 348.94 612.95 349.02 614.23 348.87 C 614.75 348.81 615.83 348.85 616.24 348.77 C 615.33 348.74 614.21 348.75 613.63 348.66 C 614.26 348.62 615.15 348.62 615.64 348.56 C 615.03 348.56 614.61 348.53 614.43 348.45 C 615.32 348.44 615.99 348.40 617.05 348.42 C 617.52 348.49 616.65 348.60 617.65 348.60 C 617.83 348.71 616.99 348.64 617.05 348.74 C 617.86 348.80 619.47 348.79 619.87 348.84 C 620.26 348.91 618.89 348.84 618.86 348.91 C 621.99 348.98 625.55 349.02 626.65 349.08 C 627.76 349.13 626.72 349.13 626.25 349.18 C 627.54 349.26 628.51 349.26 630.04 349.29 C 631.02 349.32 630.63 349.35 630.26 349.40 C 630.52 349.42 630.75 349.44 630.90 349.46 C 631.01 349.48 631.29 349.50 631.48 349.54 C 630.88 349.58 629.76 349.54 629.27 349.61 C 630.17 349.75 632.31 349.61 633.09 349.78 C 631.85 349.89 630.52 349.86 629.13 349.93 C 631.84 350.03 634.62 349.57 636.80 349.96 C 636.41 349.99 636.24 350.12 635.92 350.19 C 636.75 350.08 637.98 349.93 638.72 350.19 C 639.13 350.22 639.94 350.31 640.75 350.35 C 639.33 350.41 638.38 350.45 637.39 350.37 C 637.41 350.41 637.50 350.45 637.67 350.48 C 635.45 350.79 634.18 350.21 632.60 350.11 L 632.23 350.15 C 631.72 350.35 633.52 350.28 633.70 350.42 C 631.36 350.49 628.81 350.35 627.66 350.56 C 630.44 350.63 632.89 350.54 634.98 350.74 C 634.44 350.96 632.34 350.81 631.34 350.94 C 635.89 351.15 636.35 351.16 636.72 351.20 L 635.66 351.26 L 635.93 351.38 C 637.93 351.40 640.28 351.39 640.16 351.46 C 640.07 351.51 638.24 351.55 636.31 351.55 L 636.92 351.83 C 639.18 351.87 641.74 352.25 644.00 352.10 C 643.63 352.30 643.82 352.27 644.29 352.39 C 643.58 352.51 642.57 352.51 641.81 352.61 C 642.07 352.67 642.54 352.64 642.69 352.73 C 642.31 352.79 641.71 352.76 641.52 352.90 C 642.59 352.97 643.74 353.01 644.87 353.06 C 645.10 353.26 644.38 353.10 644.44 353.23 C 645.51 353.30 647.01 353.21 647.79 353.40 C 646.89 353.54 645.13 353.41 644.58 353.52 L 645.66 353.70 C 646.39 353.72 646.74 353.76 645.92 353.84 C 645.48 353.89 645.49 353.90 645.60 353.92 C 646.10 354.05 647.84 354.03 647.79 354.31 C 647.35 354.31 645.61 354.30 645.17 354.49 C 645.50 354.70 646.39 354.58 646.48 354.77 C 644.55 354.68 644.62 354.78 644.14 354.64 C 644.35 354.61 644.90 354.66 644.88 354.54 L 641.28 354.55 L 641.28 354.55 L 641.28 354.55 L 641.28 354.55 C 641.39 354.70 641.35 354.88 641.24 354.98 C 641.76 354.99 642.30 355.04 643.27 355.01 C 643.01 355.30 642.12 355.26 641.30 355.17 L 641.32 355.30 C 642.65 355.29 644.68 355.38 646.04 355.53 C 645.42 355.59 643.13 355.59 641.57 355.54 L 641.72 355.70 C 639.76 355.64 637.46 355.89 635.26 355.77 C 636.32 356.12 637.56 355.84 638.93 355.92 C 639.56 355.96 640.14 356.07 640.75 356.18 C 642.49 356.11 647.66 356.07 648.25 356.20 C 648.90 356.34 643.66 356.34 643.63 356.42 C 643.60 356.50 646.04 356.59 644.89 356.57 C 644.29 356.55 642.98 356.52 642.03 356.49 L 641.93 356.99 C 642.76 357.00 643.74 357.08 643.78 356.76 C 644.19 356.80 645.05 356.67 645.18 356.83 C 645.04 356.85 644.83 356.83 644.83 356.91 C 645.03 356.92 645.32 356.89 645.35 356.98 C 644.35 357.01 642.97 357.10 641.88 357.09 L 641.60 357.32 C 641.62 357.35 642.47 357.42 643.20 357.46 C 643.97 357.51 642.37 357.59 641.10 357.57 L 640.49 357.82 C 640.93 357.81 641.44 357.81 642.04 357.83 C 642.74 357.93 642.72 358.10 643.42 358.20 C 642.13 358.26 640.57 358.27 639.32 358.22 L 637.94 358.68 C 638.98 358.75 639.94 358.88 640.51 358.99 C 640.97 358.97 641.45 358.95 641.62 359.06 C 641.19 359.13 642.31 359.16 642.14 359.36 C 641.53 359.17 640.31 359.25 639.87 358.99 C 638.91 358.99 637.86 359.00 636.93 358.99 L 636.57 359.07 C 637.36 359.09 638.11 359.13 638.95 359.22 C 638.57 359.50 636.25 359.51 634.57 359.35 C 631.15 359.55 627.69 358.53 624.27 358.38 C 624.13 358.38 623.93 358.41 623.71 358.45 L 622.96 358.68 C 623.78 358.70 624.51 358.74 625.11 358.80 C 622.69 359.01 628.57 358.96 628.95 359.17 C 625.03 359.51 617.69 359.26 613.16 359.49 C 614.25 359.51 614.60 359.54 613.43 359.61 L 612.47 359.67 C 617.08 359.86 621.87 359.42 625.54 359.84 C 623.36 359.88 620.05 359.73 619.14 359.99 C 619.78 360.00 620.71 359.96 620.84 360.06 C 619.72 360.26 615.97 360.00 614.87 360.21 C 620.25 360.36 627.55 360.18 631.51 360.58 C 625.52 360.43 617.44 360.65 612.31 360.35 C 613.20 360.31 613.21 360.24 612.74 360.13 L 607.92 359.97 C 607.59 360.02 607.70 360.05 608.49 360.12 C 609.14 360.18 609.52 360.16 609.73 360.27 C 609.29 360.32 604.22 360.30 608.25 360.37 C 612.27 360.44 619.23 360.57 615.16 360.64 C 611.09 360.71 609.48 360.87 611.70 360.94 C 613.93 361.01 620.97 361.28 618.61 361.31 C 616.26 361.34 611.30 361.51 608.50 361.46 C 605.69 361.41 610.40 360.74 606.27 360.72 C 602.14 360.70 605.58 360.95 604.79 360.94 C 603.54 360.93 601.24 360.94 599.06 360.95 C 597.53 360.99 595.56 360.98 594.57 361.09 C 594.64 361.21 599.30 361.12 597.46 361.24 C 592.93 361.24 587.87 361.29 589.95 361.01 C 587.15 361.04 585.09 361.02 583.34 360.97 C 580.62 361.25 577.46 361.20 577.11 361.27 C 576.70 361.36 569.28 360.79 566.49 361.58 C 566.28 361.56 561.28 361.36 560.85 361.13 C 556.09 361.38 556.76 361.57 552.07 361.48 C 548.15 361.41 546.95 361.27 546.29 361.25 C 542.16 361.11 542.19 361.38 540.17 360.32 C 539.56 360.01 538.62 360.00 538.30 359.47 C 537.66 358.41 537.36 357.05 537.56 355.34 Z M 640.74 354.19 C 641.47 354.11 642.79 354.17 643.56 354.07 C 642.68 353.86 641.59 353.92 640.48 354.01 L 640.74 354.19 Z M 635.10 357.45 C 635.59 357.46 636.18 357.28 636.73 357.33 C 637.25 357.34 637.79 357.30 638.58 357.41 C 638.51 357.52 637.21 357.63 636.20 357.60 L 636.20 357.78 C 636.69 357.87 637.27 357.93 637.96 357.93 L 638.67 357.89 C 638.69 357.78 638.32 357.70 638.18 357.73 C 638.36 357.56 638.97 357.48 639.76 357.43 L 640.05 357.33 C 640.16 357.17 639.56 357.09 640.23 357.11 C 639.76 356.93 638.54 357.08 637.78 357.03 C 638.63 357.41 635.42 357.17 634.63 357.33 Z M 628.96 349.97 L 627.65 349.99 C 628.29 350.00 628.78 350.02 629.23 350.04 Z M 592.98 348.27 C 595.60 348.76 601.10 348.31 601.46 348.58 L 603.16 348.49 C 599.51 348.45 595.60 348.38 592.98 348.27 Z M 602.23 360.13 C 602.45 360.11 602.36 360.08 601.83 360.05 C 599.01 359.92 597.34 359.76 599.12 359.76 C 600.64 359.76 603.95 359.71 602.98 359.64 L 599.07 359.54 C 598.05 359.61 597.06 359.80 596.05 360.04 C 598.23 360.07 600.32 360.09 602.23 360.13 Z M 594.83 360.35 C 595.61 360.34 596.54 360.31 597.48 360.29 L 595.01 360.25 Z M 593.83 360.59 C 595.42 360.61 597.01 360.57 595.41 360.50 L 594.32 360.46 Z M 592.85 360.71 C 592.87 360.64 593.14 360.58 593.67 360.57 C 592.59 360.55 590.43 360.49 590.53 360.65 C 591.25 360.68 592.04 360.70 592.85 360.71 Z M 591.24 347.98 C 591.94 347.95 592.55 347.92 591.44 347.86 L 590.16 347.80 Z M 627.91 360.08 C 627.61 360.06 626.47 360.07 625.81 360.00 C 625.74 359.45 628.33 359.85 627.91 360.08 Z M 632.18 360.31 C 631.89 360.29 630.75 360.30 630.08 360.24 C 630.01 359.68 632.60 360.08 632.18 360.31 Z M 566.48 361.59 L 566.49 361.59 L 566.48 361.59 Z M 566.48 361.59 " fill="#231F20" id="middle_section"/>
        <rect x="537.17" y="346.48" width="112.00" height="15.50" stroke="#ED2024" stroke-width="0.50" fill="none" id="middle_section_bounds"/>
        <rect x="782.23" y="334.02" width="32.04" height="13.33" stroke="#ED2024" stroke-width="0.47" fill="none" id="filled_circle_end_bounds"/>
        <rect x="782.39" y="403.75" width="33.73" height="13.33" stroke="#ED2024" stroke-width="0.47" fill="none" id="filled_diamond_end_bounds"/>
        <rect x="948.17" y="404.43" width="32.45" height="13.33" stroke="#ED2024" stroke-width="0.48" fill="none" id="open_circle_end_bounds"/>
        <rect x="953.46" y="335.60" width="32.37" height="13.33" stroke="#ED2024" stroke-width="0.49" fill="none" id="open_square_end_bounds"/>
        <rect x="951.05" y="259.76" width="31.67" height="13.33" stroke="#ED2024" stroke-width="0.47" fill="none" id="filled_square_end_bounds"/>
        <rect x="976.30" y="481.43" width="12.30" height="13.33" stroke="#ED2024" stroke-width="0.44" fill="none" id="inverted_arrow_end_bounds"/>
        <rect x="974.49" y="562.62" width="4.57" height="13.33" stroke="#ED2024" stroke-width="0.33" fill="none" id="line_end_bounds"/>
        <rect x="796.58" y="480.02" width="20.53" height="14.06" stroke="#ED2024" stroke-width="0.44" fill="none" id="open_arrow_end_bounds"/>
        <rect x="780.71" y="558.12" width="21.19" height="13.33" stroke="#ED2024" stroke-width="0.41" fill="none" id="filled_arrow_end_bounds"/>
        <rect x="785.01" y="260.00" width="31.07" height="13.33" stroke="#ED2024" stroke-width="0.46" fill="none" id="simple_arrow_end_bounds"/>
        <path d="M 824.17 286.82 L 824.48 247.71 L 821.61 245.56 L 784.96 264.67 L 784.96 268.83 L 816.37 287.45 Z M 824.06 287.66 " stroke="#ED2024" stroke-width="0.50" fill="none" id="simple_arrow_wrap"/>
        <path d="M 816.23 325.97 C 824.18 333.92 824.18 346.82 816.23 354.77 C 808.27 362.73 795.38 362.73 787.42 354.77 C 779.47 346.82 779.47 333.92 787.42 325.97 C 795.38 318.02 808.27 318.02 816.23 325.97 " stroke="#ED2024" stroke-width="0.50" fill="none" id="filled_circle_wrap"/>
        <path d="M 830.20 410.39 L 806.28 386.47 L 780.79 410.39 L 804.30 435.57 Z M 829.89 410.19 " stroke="#ED2024" stroke-width="0.50" fill="none" id="filled_diamond_wrap"/>
        <path d="M 838.21 468.33 L 832.39 462.61 L 796.60 484.35 L 796.60 489.34 L 830.41 514.41 L 837.38 508.69 L 811.69 487.57 Z M 838.52 467.91 " stroke="#ED2024" stroke-width="0.50" fill="none" id="open_arrow_wrap"/>
        <path d="M 816.99 563.30 L 821.15 543.43 L 817.51 541.25 L 780.79 562.78 L 780.69 566.52 L 817.72 590.55 L 823.86 587.01 Z M 816.68 563.82 " stroke="#ED2024" stroke-width="0.50" fill="none" id="filled_arrow_wrap"/>
        <path d="M 974.58 549.26 L 989.20 549.26 L 989.20 589.37 L 974.58 589.37 Z M 974.58 549.26 " stroke="#ED2024" stroke-width="0.49" fill="none" id="line_wrap"/>
        <path d="M 1000.16 487.89 L 979.78 509.63 L 976.34 507.96 L 976.24 469.06 L 983.31 466.04 Z M 1000.06 487.57 " stroke="#ED2024" stroke-width="0.50" fill="none" id="inverted_arrow_wrap"/>
        <path d="M 981.71 396.36 C 989.62 404.27 989.62 417.10 981.71 425.01 C 973.79 432.93 960.96 432.93 953.05 425.01 C 945.14 417.10 945.14 404.27 953.05 396.36 C 960.96 388.44 973.79 388.44 981.71 396.36 " stroke="#ED2024" stroke-width="0.51" fill="none" id="open_circle_wrap"/>
        <path d="M 954.71 323.54 L 990.66 323.02 L 990.14 361.15 L 953.46 361.15 Z M 953.57 324.27 " stroke="#ED2024" stroke-width="0.50" fill="none" id="open_square_wrap"/>
        <path d="M 951.80 248.55 L 988.47 248.13 L 987.75 286.26 L 951.07 286.47 Z M 951.28 247.71 " stroke="#ED2024" stroke-width="0.50" fill="none" id="filled_square_wrap"/>
    </g>
</svg>